<?xml version="1.0" encoding="UTF-8"?>
<!DOCTYPE svg PUBLIC "-//W3C//DTD SVG 1.1//EN" "http://www.w3.org/Graphics/SVG/1.1/DTD/svg11.dtd">
<!-- Creator: CorelDRAW X7 -->
<svg xmlns="http://www.w3.org/2000/svg" xml:space="preserve" width="64.6033mm" height="10.7246mm" version="1.1" style="shape-rendering:geometricPrecision; text-rendering:geometricPrecision; image-rendering:optimizeQuality; fill-rule:evenodd; clip-rule:evenodd"
viewBox="0 0 63316742 10511022"
 xmlns:xlink="http://www.w3.org/1999/xlink">
 <defs>
  <style type="text/css">
   <![CDATA[
    .fil2 {fill:none}
    .fil0 {fill:#9ACA4A}
    .fil1 {fill:white}
    .fil3 {fill:#63C1BF;fill-rule:nonzero}
   ]]>
  </style>
 </defs>
 <g id="Layer_x0020_1">
  <metadata id="CorelCorpID_0Corel-Layer"/>
  <circle class="fil0" cx="924303" cy="1332528" r="924276"/>
  <rect class="fil1" x="110342" y="3055657" width="1753879" height="7164467"/>
  <path class="fil1" d="M4859067 3201547c146914,-70371 336953,-112808 544633,-112808l1649582 0 0 476811 0 1277051 -1557650 0c-351655,98 -636565,285009 -636565,636566l0 2510292c0,262565 212384,475635 474753,476713l1692803 0 0 1753961 -1869218 0c-1129843,0 -2046418,-913145 -2052103,-2041714l-98 0 0 -7712192 1753863 0 0 2735320z"/>
  <path class="fil1" d="M14219861 7406014c0,1714855 -1388879,3105008 -3102166,3105008 -1713287,0 -3102166,-1390153 -3102166,-3105008l0 -4350402 1753863 0 0 4350402 294 0c9703,732614 609417,1323507 1348009,1323507 738494,0 1338209,-590893 1348009,-1323507l196 0 0 -4350402 1753961 0 0 4350402z"/>
  <path class="fil1" d="M17112387 5472992l0 4747141 -1753863 0 0 -5152504 0 -6567c0,-1107496 891976,-2005450 1992121,-2005450l6077 0 1693783 0 0 1753960 -1322625 0c-339893,0 -615493,297064 -615493,663420z"/>
  <path class="fil1" d="M32787478 5977246c0,-1669575 -1388879,-3023073 -3102068,-3023073 -1713287,0 -3102165,1353498 -3102165,3023073l0 4235634 1753862 0 0 -4235634 196 0c9801,-713208 609515,-1288616 1348009,-1288616 738593,0 1338307,575408 1348108,1288616l196 0 0 4235634 1753862 0 0 -4235634z"/>
  <path class="fil2" d="M23731294 5190924c-50180,-170927 -181511,-305885 -348420,-358026"/>
  <path class="fil1" d="M22377993 5821608c477791,0 941274,54591 1375255,152894l0 -629803c0,-295594 -234436,-535127 -523757,-535127l-2909775 0 0 -1753960 3063158 0c1173162,0 2124237,956073 2124237,2135312l0 1521876 0 153383 0 2974069c-736240,385958 -1790910,592560 -2975735,592560 -2263017,0 -3245650,-974695 -3245650,-2292812 0,-1318019 829348,-2318392 3092267,-2318392zm295397 1382607c385664,19601 763781,81249 1079858,179159l0 1371924c-343029,118198 -748491,188274 -1122785,188274 -883155,0 -1575095,-304806 -1599205,-890505 -24111,-585699 670182,-898347 1642132,-848852z"/>
  <path class="fil3" d="M33840384 10277370l0 -7146978 1766898 0 71840 1286460c239435,-476517 567371,-833856 983907,-1072017 416635,-238259 878647,-357339 1386233,-357339 517093,0 983908,119080 1400542,357339 416536,238161 730261,590795 940882,1057708 153187,-314411 359103,-576486 617649,-786126 258547,-209641 545908,-366944 861985,-471715 315882,-104870 636762,-157206 962346,-157206 469167,0 897758,95264 1285578,285793 387918,190626 696743,476517 926573,857672 229830,381156 344696,867180 344696,1457975l0 4688434 -1967914 0 0 -4302476c0,-524150 -114866,-895798 -344794,-1114945 -229732,-219147 -526599,-328721 -890603,-328721 -287263,0 -552964,71448 -797201,214345 -244238,142994 -435648,354987 -574526,636075 -138879,281187 -208367,631371 -208367,1050652l0 3845070 -1967913 0 0 -4302476c0,-524150 -117316,-895798 -351948,-1114945 -234633,-219147 -533853,-328721 -897758,-328721 -249040,0 -495532,66646 -739867,200134 -244139,133389 -445253,343029 -603242,628920 -157990,285891 -237083,662244 -237083,1129157l0 3787931 -1967913 0z"/>
  <path id="1" class="fil3" d="M50690108 2987496c727909,0 1367121,147699 1917732,443096 550612,295398 981556,719481 1292733,1272151 311275,552670 466913,1219716 466913,2001138 0,771915 -155638,1436511 -466913,1993984 -311177,557472 -742121,983907 -1292733,1279305 -550611,295398 -1189823,443096 -1917732,443096 -718207,0 -1355066,-147698 -1910481,-443096 -555316,-295398 -988710,-721833 -1299985,-1279305 -311177,-557473 -466814,-1222069 -466814,-1993984 0,-781422 155637,-1448468 466814,-2001138 311275,-552670 744669,-976753 1299985,-1272151 555415,-295397 1192274,-443096 1910481,-443096zm0 1457975c-363906,0 -672633,83307 -926475,250117 -253744,166713 -447703,416929 -581681,750452 -134173,333523 -201113,752803 -201113,1257841 0,505038 66940,924319 201113,1257842 133978,333523 327937,583738 581681,750451 253842,166810 562569,250118 926475,250118 354398,0 658421,-83308 912165,-250118 253842,-166713 447801,-416928 581779,-750451 134075,-333523 201113,-752804 201113,-1257842 0,-505038 -67038,-924318 -201113,-1257841 -133978,-333523 -327937,-583739 -581779,-750452 -253744,-166810 -557767,-250117 -912165,-250117z"/>
  <path id="2" class="fil3" d="M60242705 10420266c-440549,0 -840325,-92912 -1199429,-278736 -359103,-185726 -655971,-443096 -890603,-771817 -234731,-328819 -395073,-698017 -481222,-1107790l201113 -257273 -114964 2272720 -1738083 0 0 -10277370 1967913 0 0 5145840 -186804 -300200c153286,-533657 445449,-976753 876294,-1329290 430944,-352635 972049,-528854 1623218,-528854 565019,0 1077407,147699 1537067,443096 459660,295398 821116,719481 1084465,1272151 263447,552670 395072,1224519 395072,2015447 0,771818 -131625,1434159 -395072,1986829 -263349,552670 -627255,976753 -1091619,1272151 -464561,295398 -993611,443096 -1587346,443096zm-589032 -1500804c526796,0 940980,-188176 1242651,-564627 301670,-376451 452407,-926769 452407,-1650954 0,-724185 -148385,-1274503 -445253,-1650953 -296868,-376451 -708700,-564628 -1235397,-564628 -344696,0 -641564,90560 -890604,271582 -248941,181120 -442900,438392 -581778,771915 -138878,333523 -208269,728988 -208269,1186393 0,466913 69391,864730 208269,1193548 138878,328721 335189,578937 589031,750452 253646,171514 543457,257272 868943,257272z"/>
 </g>
</svg>
